<?xml version="1.0" encoding="UTF-8"?>
<svg width="100pt" height="100pt" version="1.1" viewBox="0 0 100 100" xmlns="http://www.w3.org/2000/svg">
 <g>
  <path d="m7.1055 70.621c-1.3203-3.0781-1.875-7.7188 0.51953-11.527 2.5977-4.1367 7.9102-6.4062 15.789-6.75 5.0234-0.21875 8.9258 0.57031 11.621 2.3398 0.042969-0.44141 0.097656-0.87109 0.17578-1.2812-3.5664-2.6953-7.9961-4.1836-12.543-4.1836-11.199 0-20.312 8.7344-20.312 19.473 0 6.2109 3.1406 12.098 8.4062 15.754 1.1875 0.82422 1.6094 2.3242 1.0273 3.6445-0.57031 1.293-1.8828 1.9531-3.2617 1.6406l-0.10547-0.023438c-0.76172-0.19141-1.2266 0.17578-1.4375 0.40625-0.41797 0.46484-0.54688 1.1602-0.32422 1.7734 0.32812 0.90625 1.3398 1.5273 2.8398 1.7383 2.6719 0.37891 7.3516 0.20703 8.6641-5.1914 0.95703-3.9414-0.58594-6.4297-2.6602-9.0234-4.5273-3.3945-7.3555-6.3516-8.3984-8.7891z"/>
  <path d="m42.086 42.188h-6.0273c0.34766 1.3438 1.5625 2.3438 3.0156 2.3438 1.4492 0 2.6641-1 3.0117-2.3438z"/>
  <path d="m13.73 62.953c-0.16797-0.26172-0.36719-0.40625-0.61719-0.44531-0.046875-0.003906-0.089843-0.007812-0.13672-0.007812-0.86328 0-2.0977 1.1523-2.6211 2.9531-0.32422 1.1172-0.27344 2.207 0.13281 2.8398 0.16797 0.26172 0.36719 0.40625 0.61719 0.44531 0.84375 0.13281 2.207-1.043 2.7539-2.9453 0.32422-1.1133 0.27344-2.2031-0.12891-2.8398z"/>
  <path d="m39.074 35.156c-3.1797 0-5.8086 2.3906-6.1953 5.4688h12.391c-0.38672-3.0781-3.0156-5.4688-6.1953-5.4688z"/>
  <path d="m31.43 59.711c0.33203-0.21484 0.53125-0.48047 0.58984-0.78906 0.17188-0.875-0.91406-2.1328-2.7461-2.5469-0.36328-0.082031-0.72656-0.12109-1.0742-0.12109-0.67969 0-1.3086 0.15234-1.7539 0.44141-0.33203 0.21484-0.53125 0.48047-0.58984 0.78906-0.17188 0.875 0.91406 2.1328 2.7461 2.5469 1.0703 0.24219 2.1562 0.12109 2.8281-0.32031z"/>
  <path d="m29.621 54.848c2.5742 0.58203 4.3008 2.5039 3.9336 4.375-0.03125 0.15234-0.078126 0.29297-0.13281 0.43359 0.33984 0.28906 0.66406 0.58984 0.97656 0.91016 0.38672-0.27344 0.78516-0.53906 1.1914-0.78516-0.35938-1.0938-0.53516-2.1602-0.59375-3.1836-2.3867-2.0117-6.25-2.918-11.516-2.6914-7.3359 0.32031-12.223 2.3438-14.535 6.0195-2.0703 3.2969-1.5664 7.3672-0.40625 10.078 0.49219 1.1445 1.5078 2.4844 2.9766 3.9609-0.60938-1.1523-1.0547-2.418-1.2422-3.8633-0.4375-0.19531-0.81641-0.51562-1.1016-0.96484-0.64844-1.0156-0.76562-2.5547-0.31641-4.1172 0.72656-2.5195 2.6562-4.2852 4.4297-4.0586 0.30859-0.33594 0.64062-0.66016 0.98828-0.96875-0.22656-0.52344-0.26563-1.1055-0.085938-1.7109 0.34375-1.1562 1.4219-2.25 2.8945-2.9297 2.4062-1.1133 5.043-0.78906 6.0039 0.73828 0.039062 0.0625 0.0625 0.12891 0.09375 0.19141 0.51172-0.035156 1.0234-0.046875 1.5352-0.027344 0.21875-0.33203 0.51172-0.62891 0.88281-0.87109 1.0352-0.66797 2.5391-0.87109 4.0234-0.53516z"/>
  <path d="m39.074 33.594c0.13281 0 0.26172 0.011719 0.39453 0.019531-1.1211-2.6484-1.7109-5.5977-1.7109-8.6133 0-8.7656 5.0703-16.469 12.055-18.316 0.13281-0.035156 0.26953-0.035156 0.39844 0 6.9844 1.8477 12.055 9.5508 12.055 18.316 0 3.0156-0.58984 5.9648-1.7109 8.6133 0.12891-0.007812 0.26172-0.019531 0.39453-0.019531 1.0625 0 2.0742 0.21484 2.9961 0.59766 4.7305-6.9219 3.4297-12.926 1.457-16.773-3.3789-6.5781-10.824-11.168-15.391-11.168-4.5742 0-12.02 4.5938-15.395 11.184-1.9688 3.8438-3.2656 9.8438 1.4648 16.762 0.91797-0.38672 1.9297-0.60156 2.9922-0.60156z"/>
  <path d="m21.762 56.922c-0.26172-0.41406-0.93359-0.67578-1.793-0.67578-0.66797 0-1.4492 0.15625-2.2305 0.51953-1.0547 0.48828-1.8398 1.2383-2.0508 1.957-0.085938 0.29688-0.066406 0.54297 0.070312 0.75781 0.46484 0.73828 2.2305 0.98438 4.0234 0.15625 1.0547-0.48828 1.8398-1.2383 2.0508-1.957 0.089844-0.29297 0.066407-0.54297-0.070312-0.75781z"/>
  <path d="m63.961 42.188h-6.0273c0.34766 1.3438 1.5625 2.3438 3.0156 2.3438 1.4492 0 2.6641-1 3.0117-2.3438z"/>
  <path d="m60.949 35.156c-3.1797 0-5.8086 2.3906-6.1953 5.4688h12.391c-0.38672-3.0781-3.0156-5.4688-6.1953-5.4688z"/>
  <path d="m56.332 42.188h-1.5781c0.38672 3.0781 3.0156 5.4688 6.1953 5.4688 3.1797 0 5.8086-2.3906 6.1953-5.4688h-1.5781c-0.375 2.2148-2.2969 3.9062-4.6172 3.9062-2.3203 0-4.2461-1.6914-4.6172-3.9062z"/>
  <path d="m30.48 72.656c0-2.543 0.42188-5.0703 1.2227-7.4648-2.7539 3.3438-4.3477 7.6172-4.3477 12.09 0 1.3516 0.14453 2.7109 0.42969 4.0391 0.88672 4.1289 3.5117 7.6914 7.2031 9.7812 2.2539 1.2734 4.7695 1.9062 7.2695 1.875-7.2305-4.1406-11.777-11.844-11.777-20.32z"/>
  <path d="m45.27 42.188h-1.5781c-0.375 2.2148-2.2969 3.9062-4.6172 3.9062-2.3203 0-4.2422-1.6914-4.6172-3.9062h-1.5781c0.38672 3.0781 3.0156 5.4688 6.1953 5.4688 3.1797 0 5.8086-2.3906 6.1953-5.4688z"/>
  <path d="m39.73 52.164c-1.3516 3.2383-1.1875 5.3125-0.89844 5.5547 0.35547 0.003906 1.9336-1.3203 3.2852-4.5586 1.0625-2.543 1.1875-4.3242 1.0547-5.1172-0.47266 0.29297-0.97656 0.53516-1.5078 0.72266-0.69141 0.86719-1.3789 2.0703-1.9336 3.3984z"/>
  <path d="m76.23 57.488c-3.5898 4.9727-8.7461 6.1836-12.906 6.1836-0.26172 0-0.5-0.019531-0.75391-0.027344 1.0078 1.2773 1.9609 2.957 2.3633 5.0234 1.1719-0.13672 2.4609-0.5 3.8516-1.082-0.11719-1.2773 0.45312-2.7188 1.6484-3.8008 0.98438-0.89062 2.1992-1.3555 3.3477-1.2773 0.75 0.050782 1.4102 0.35547 1.9062 0.84375 0.12109-0.09375 0.23828-0.19141 0.35547-0.28906-0.61328-1.4531-0.085938-3.3828 1.4219-4.7422 0.98438-0.89062 2.1953-1.3594 3.3477-1.2773 0.32031 0.023437 0.61719 0.10156 0.89844 0.20703 0.25-0.32422 0.48828-0.64844 0.71484-0.96875-1.1523-1.0469-1.5234-3.0078-0.80469-4.8984 0.48438-1.2695 1.3711-2.2539 2.4336-2.6953 0.58594-0.24219 1.1992-0.30078 1.7734-0.17969 0.10156-0.83594 0.089844-1.625-0.03125-2.3594-0.35156-2.0898-0.13672-3.5898 0.30078-4.6797-1.4375 1.4219-2.8711 4.0664-4.5195 7.1133-1.5078 2.793-3.2227 5.9609-5.3477 8.9062z"/>
  <path d="m74.684 64.539c-0.29688-0.35547-0.71094-0.45312-1.0078-0.47266-0.046875-0.003906-0.09375-0.003906-0.14062-0.003906-0.67578 0-1.4336 0.32422-2.0508 0.88281-1.1172 1.0078-1.4961 2.5352-0.83203 3.3281 0.29688 0.35547 0.71094 0.45312 1.0078 0.47266 0.72656 0.050781 1.5312-0.27734 2.1953-0.87891 1.1094-1.0117 1.4922-2.5312 0.82812-3.3281z"/>
  <path d="m70.324 80.469c0 0.019531 0.003906 0.042969 0.003906 0.0625 0.90625-0.13672 1.832-0.65625 2.7773-1.582 0.20312-0.19922 0.42188-0.375 0.63281-0.55469-0.32812-0.17188-0.69141-0.26953-1.0703-0.26953-1.293 0-2.3438 1.0508-2.3438 2.3438z"/>
  <path d="m81.715 59.07c-0.29688-0.35547-0.71094-0.45312-1.0078-0.47266-0.046875-0.003906-0.09375-0.003906-0.14062-0.003906-0.67578 0-1.4336 0.32422-2.0508 0.88281-1.1172 1.0078-1.4961 2.5352-0.83203 3.3281 0.29688 0.35547 0.71094 0.45312 1.0078 0.47266 0.72656 0.054687 1.5312-0.27734 2.1953-0.87891 1.1094-1.0117 1.4922-2.5312 0.82812-3.3281z"/>
  <path d="m56.543 81.773c0.93359 2.4766 2.6914 4.8242 5.0273 6.3984 3.8984 2.6289 8.3086 2.3359 12.246-0.75781-0.64062 0.050782-1.2812 0.085938-1.9258 0.085938-5.6523 0-11.113-2.0625-15.348-5.7266z"/>
  <path d="m97.152 37.77c-1.2422-3.1094-4.7734-5.1367-8.6055-4.9414-7.2422 0.375-9.3008 7.5547-11.117 13.887-0.62891 2.1875-1.2188 4.2539-1.9922 5.8516-2.1094 4.3555-6.8203 5.6641-10.664 5.9531-0.25391 1.1641-0.69922 2.3711-1.3867 3.5938 3.7656-0.015625 8.3828-1.1133 11.578-5.5352 2.0664-2.8633 3.7539-5.9844 5.2422-8.7383 2.8633-5.2969 5.1406-9.4922 8.5664-9.0039 1.8516-0.66406 4.0898-0.14063 5.2539 1.2891 0.94922 1.1641 0.92578 2.668-0.0625 4.0273-0.11328 0.15625-0.22266 0.30859-0.32031 0.45703-0.40234 0.60547-0.011719 1.0156 0.25391 1.207 0.41797 0.29688 1.2305 0.48828 1.7578-0.20703 2.0156-2.6484 2.5156-5.2852 1.4961-7.8398z"/>
  <path d="m66.977 79.098c0.14063-0.30469 0.21875-0.63281 0.21875-0.97266 0-1.1641-0.85547-2.125-1.9727-2.3047 0.34766 1.2031 0.94922 2.3867 1.7539 3.2773z"/>
  <path d="m81.668 76.301c0.33984 0.066407 0.67188 0.15625 1.0078 0.25391-0.32422-0.90234-1.1836-1.5547-2.1953-1.5547-0.88672 0-1.6523 0.50391-2.0508 1.2344 1.0508-0.16016 2.1367-0.14453 3.2383 0.066406z"/>
  <path d="m41.297 85.867c0.074219-0.23047 0.12109-0.46484 0.12109-0.71094 0-1.293-1.0508-2.3438-2.3438-2.3438-0.28125 0-0.55469 0.054688-0.8125 0.14844 0.90234 1.5625 1.9805 2.4375 3.0352 2.9062z"/>
  <path d="m47.695 60.945c-0.62109 0.30078-2.375 2.2812-3.832 4.1836 0.99219-0.3125 2.043-0.48047 3.1094-0.48047 1.4883 0 2.9141 0.31641 4.2031 0.89062-1.3086-2.2617-2.8711-4.3398-3.4805-4.5938z"/>
  <path d="m81.371 77.836c-1.8711-0.36328-4.6289-0.26953-7.1758 2.2305-2.8633 2.8086-5.3516 2.1523-6.5781 1.5117-3.1094-1.625-4.707-6.1328-4.1914-9.1602 0.65625-3.8672-1.0703-6.7383-2.6367-8.4609-0.14844-0.16016-0.21875-0.375-0.19922-0.58984 0.019531-0.21484 0.125-0.41406 0.29688-0.55078 0.30859-0.24219 0.53906-0.48438 0.71094-0.74609 3.5117-5.3789 1.3125-10.574-0.042968-12.883-0.20313 0.015625-0.40625 0.03125-0.60938 0.03125-4.3086 0-7.8125-3.5039-7.8125-7.8125 0-3.5234 2.3477-6.5078 5.5547-7.4766 1.3164-2.6875 2.0156-5.7656 2.0156-8.9297 0-7.9844-4.4844-14.988-10.695-16.754-6.207 1.7656-10.691 8.7695-10.691 16.754 0 3.1641 0.69922 6.2461 2.0117 8.9297 3.2109 0.97266 5.5547 3.9531 5.5547 7.4766 0 2.2109-0.92578 4.2031-2.4062 5.625 0.68359 1.4688 0.097657 4.2969-0.91797 6.7266-1.168 2.7969-3.0742 5.5078-4.7578 5.5078-0.19922 0-0.39453-0.039063-0.58594-0.11719-0.60156-0.25-1.2812-0.98047-1.1289-3.0352 0.097656-1.3203 0.52344-2.9375 1.1992-4.5547 0.35547-0.84766 0.76172-1.6445 1.1953-2.3633-0.13281 0.011719-0.26953 0.023438-0.40625 0.023438-0.20703 0-0.41016-0.015625-0.61328-0.03125-1.1133 1.9062-2.9688 6.0938-1.1836 10.668 0.14453 0.36719-0.007813 0.78125-0.35547 0.97266l-0.46094 0.25c-0.64453 0.38672-1.2578 0.8125-1.8438 1.2695-1.6797 3.1523-2.5742 6.7109-2.5742 10.309 0 8.6797 5.1055 16.5 13.02 20 0.51172-0.11328 1.0156-0.25 1.5156-0.41797 1.1016-0.375 1.9961-0.85938 2.6562-1.4297 1.9844-1.7227 3.0312-3.6914 3.1172-5.8438 0.085938-2.2188-0.91797-4.0742-1.6133-4.7812-0.32422-0.32812-1.1758-0.49609-1.75-0.34766-0.22656 0.058593-0.32812 0.14453-0.33984 0.1875 0 0.003906-0.097657 0.41406 0.88672 1.4102 0.77734 0.79297 0.95312 1.8633 0.47656 2.9375-0.8125 1.832-3.5391 3.6445-6.7148 3.5273-1.9531-0.074219-5.5117-1.0117-7.4219-6.4375-1.918-5.4609 1.9258-10.707 5.3164-15.336 0.36328-0.49609 0.71875-0.98047 1.0586-1.457 2.6289-3.5234 4.4531-5.3047 5.4258-5.3047 1.6016 0 3.8906 3.668 5.1094 5.8555 0.42969 0.97656 0.99609 1.918 1.5469 2.832 1.3867 2.3047 2.8164 4.6914 1.9297 7.0859-0.43359 1.1719-0.54688 2.4727-0.40234 3.8086 4.125 4.4453 9.9609 6.9922 16.027 6.9922 1.3828 0 2.7578-0.13281 4.0859-0.39062 1.5-1.2109 4.0273-2.9102 6.1719-2.6523 1.0039 0.125 1.8359 0.67188 2.4062 1.5859 0.17969 0.24609 0.9375 1.3984 0.51172 2.668-0.32812 0.98828-1.2578 1.7031-2.7578 2.125-0.52734 0.14844-0.77734 0.57031-0.83203 0.91406-0.03125 0.19141-0.050781 0.67188 0.43359 0.99609l0.074219 0.050781c0.76172 0.49609 2.9922-0.089844 4.8203-1.6367 0.98438-0.83203 3.1445-3.0781 1.9062-5.9141-1.2734-2.8906-4.2188-5.2422-7.3359-5.8477z"/>
  <path d="m85.242 50c-0.22266 0-0.42578 0.058594-0.58203 0.125-0.66016 0.27344-1.2461 0.94922-1.5742 1.8086-0.54688 1.4375-0.21094 3.0117 0.73828 3.4336 0.40625 0.18359 0.80469 0.089843 1.0703-0.019532 0.66016-0.27344 1.2461-0.94922 1.5742-1.8086 0.54688-1.4375 0.21094-3.0117-0.73828-3.4336-0.16797-0.078125-0.33203-0.10547-0.48828-0.10547z"/>
  <path d="m37.254 76.18c-0.34375 1.3242-0.43359 2.6523-0.13281 3.9648 0.70703-0.41016 1.168-1.168 1.168-2.0234 0.003907-0.79297-0.39844-1.5156-1.0352-1.9414z"/>
  <path d="m40.637 71.094c0-0.39062-0.10547-0.76172-0.28516-1.0977-0.76172 1.125-1.4727 2.2773-2.0469 3.4414 1.2852-0.007812 2.332-1.0547 2.332-2.3438z"/>
 </g>
</svg>
