<?xml version="1.0" standalone="no"?>
<!DOCTYPE svg PUBLIC "-//W3C//DTD SVG 1.1//EN" "http://www.w3.org/Graphics/SVG/1.1/DTD/svg11.dtd" >
<svg xmlns="http://www.w3.org/2000/svg" xmlns:xlink="http://www.w3.org/1999/xlink" version="1.1">
<metadata>
Created by FontForge 20170731 at Mon Nov 18 15:14:42 2019
 By Aleksey,,,
Typeface (c) (faldykudo). &#60;2019&#62;. All Rights Reserved
</metadata>
<defs>
<font id="GraysonRegular" horiz-adv-x="1108" >
  <font-face 
    font-family="Grayson - Regular"
    font-weight="400"
    font-stretch="normal"
    units-per-em="2048"
    panose-1="2 0 8 0 0 0 0 0 0 0"
    ascent="1638"
    descent="-410"
    x-height="976"
    cap-height="1479"
    bbox="-192 -493 6608 1916"
    underline-thickness="150"
    underline-position="-592"
    unicode-range="U+001D-F002"
  />
<missing-glyph horiz-adv-x="1024" 
d="M100 0v1434h824v-1434h-824zM150 50h724v1334h-724v-1334zM300 1143q34 31 63 47q62 35 132 35q107 0 168 -52t61 -129q0 -47 -22.5 -96t-87.5 -129q-62 -79 -98.5 -131.5t-36.5 -103.5q0 -38 26 -138h-82q-38 105 -38 154q0 73 81.5 215t81.5 219q0 61 -28 89t-70 28
q-28 0 -50 -12q-24 -13 -100 -79v83zM380 331l58 59q14 12 29 12q14 0 30 -14l56 -60q8 -11 8 -19q0 -10 -10 -21l-56 -62q-17 -17 -28 -17q-17 0 -29 13l-62 71q-7 9 -7 17q0 10 11 21z" />
    <glyph glyph-name=".notdef" horiz-adv-x="1024" 
d="M100 0v1434h824v-1434h-824zM150 50h724v1334h-724v-1334zM300 1143q34 31 63 47q62 35 132 35q107 0 168 -52t61 -129q0 -47 -22.5 -96t-87.5 -129q-62 -79 -98.5 -131.5t-36.5 -103.5q0 -38 26 -138h-82q-38 105 -38 154q0 73 81.5 215t81.5 219q0 61 -28 89t-70 28
q-28 0 -50 -12q-24 -13 -100 -79v83zM380 331l58 59q14 12 29 12q14 0 30 -14l56 -60q8 -11 8 -19q0 -10 -10 -21l-56 -62q-17 -17 -28 -17q-17 0 -29 13l-62 71q-7 9 -7 17q0 10 11 21z" />
    <glyph glyph-name=".null" horiz-adv-x="0" 
 />
    <glyph glyph-name=".null" horiz-adv-x="0" 
 />
    <glyph glyph-name="nonmarkingreturn" horiz-adv-x="508" 
 />
    <glyph glyph-name="space" unicode=" " horiz-adv-x="508" 
 />
    <glyph glyph-name="space" unicode="&#xa0;" horiz-adv-x="508" 
 />
    <glyph glyph-name="exclam" unicode="!" horiz-adv-x="720" 
d="M487 137v0q0 56 -40.5 96t-96.5 40q-57 0 -97 -40t-40 -96q0 -57 40 -97t97 -40q56 0 96.5 40t40.5 97zM240 1478v0l30 -985h162l27 985h-219z" />
    <glyph glyph-name="quotedbl" unicode="&#x22;" horiz-adv-x="732" 
d="M300 1103v0v434h-217v-434h217zM640 1103v0v434h-217v-434h217z" />
    <glyph glyph-name="numbersign" unicode="#" horiz-adv-x="1492" 
d="M1393 944v0h-236v-411h236v-234h-236v-293h-237v293h-355v-293h-237v293h-237v234h237v411h-237v234h237v293h237v-293h355v293h237v-293h236v-234zM920 533v0v411h-355v-411h355z" />
    <glyph glyph-name="dollar" unicode="$" 
d="M693 794v0q124 -42 197.5 -142t74.5 -230v-7q-3 -138 -85 -240t-212 -137v-132h-217v132q-114 28 -194 114q-102 113 -104 265v127h217v-127q1 -35 13.5 -60t26.5 -39q58 -58 137 -58h24q73 0 124 45t53 111v6q-6 106 -117 148l-205 66q-123 42 -196.5 141.5t-75.5 228.5
q1 152 103 265q81 86 194 115v132h217v-132q130 -35 212 -136.5t85 -240.5l1 -129l-217 -1l-1 129q-2 66 -53 111t-124 45h-23q-80 0 -137 -58q-15 -15 -27 -40t-13 -59q6 -105 117 -147z" />
    <glyph glyph-name="percent" unicode="%" horiz-adv-x="1698" 
d="M490 928v0q112 0 191.5 79.5t79.5 192.5q0 112 -79.5 191.5t-191.5 79.5q-113 0 -192.5 -79.5t-79.5 -191.5q0 -113 79.5 -192.5t192.5 -79.5zM490 1254v0q22 0 38 -16t16 -38q0 -23 -16 -39t-38 -16q-23 0 -39 16t-16 39q0 22 16 38t39 16zM1195 6v0q112 0 191.5 79.5
t79.5 191.5t-79.5 191.5t-191.5 79.5t-191.5 -79.5t-79.5 -191.5t79.5 -191.5t191.5 -79.5zM1195 331v0q23 0 38.5 -15.5t15.5 -38.5q0 -22 -15.5 -38t-38.5 -16q-22 0 -38 16t-16 38q0 23 16 38.5t38 15.5zM1127 1471v0h245l-760 -1465h-245z" />
    <glyph glyph-name="ampersand" unicode="&#x26;" horiz-adv-x="1310" 
d="M1202 -21v0h-267l-66 92q-118 -92 -270 -92h-46q-121 0 -220.5 59t-158.5 158.5t-59 220.5q0 100 42.5 189t121.5 153l63 50l-58 81q-61 87 -61 189v39q0 135 95.5 230.5t230.5 95.5t230.5 -95.5t95.5 -230.5q0 -155 -123 -258l-114 -92l182 -255v62h217v-158
q0 -87 -31 -164zM440 1118v0v-39q0 -34 21 -63l50 -71l106 84q40 35 40 85q0 48 -31.5 80.5t-76.5 32.5t-77 -32t-32 -77zM599 196v0q82 0 143 52l-274 384l-53 -42q-83 -72 -83 -173q0 -92 65 -156.5t156 -64.5h46z" />
    <glyph glyph-name="quotesingle" unicode="'" horiz-adv-x="406" 
d="M314 1096v0v434h-217v-434h217z" />
    <glyph glyph-name="parenleft" unicode="(" horiz-adv-x="864" 
d="M678 -372v0h-240q-164 468 -165 974.5t162 977.5h238l-21 -53q-166 -451 -159.5 -950.5t183.5 -941.5z" />
    <glyph glyph-name="parenright" unicode=")" horiz-adv-x="864" 
d="M253 -372l3 7q177 442 183 941.5t-160 950.5l-20 53h238q162 -471 161 -977.5t-165 -974.5h-240v0z" />
    <glyph glyph-name="asterisk" unicode="*" horiz-adv-x="1092" 
d="M1030 1522v0v-175h-270l191 -190l-123 -124l-191 191v-270h-175v270l-191 -191l-123 124l190 190h-270v175h270l-190 191l123 124l191 -191v270h175v-270l191 191l123 -124l-191 -191h270z" />
    <glyph glyph-name="plus" unicode="+" 
d="M1043 855v0v-217h-379v-380h-217v380h-380v217h380v379h217v-379h379z" />
    <glyph glyph-name="comma" unicode="," horiz-adv-x="625" 
d="M317 96v0h-55l-164 -493h219l219 493h-219z" />
    <glyph glyph-name="hyphen" unicode="-" horiz-adv-x="998" 
d="M881 502v0v217h-760v-217h760z" />
    <glyph glyph-name="hyphen" unicode="&#xad;" horiz-adv-x="998" 
d="M881 502v0v217h-760v-217h760z" />
    <glyph glyph-name="period" unicode="." horiz-adv-x="625" 
d="M449 123v0q0 57 -40 97t-97 40t-97 -40t-40 -97q0 -56 40 -96t97 -40t97 40t40 96z" />
    <glyph glyph-name="slash" unicode="/" horiz-adv-x="824" 
d="M24 -293v0h231l543 1952h-231z" />
    <glyph glyph-name="zero" unicode="0" horiz-adv-x="1236" 
d="M619 1v0q158 0 288.5 100t208.5 268t78 372t-78 371.5t-208.5 267.5t-288.5 100q-159 0 -289.5 -100t-208.5 -267.5t-78 -371.5t78 -372t208.5 -268t289.5 -100zM619 1261v0q96 0 177 -71.5t130 -189.5t49 -259t-49 -259.5t-130 -190t-177 -71.5q-97 0 -178 71.5
t-129.5 190t-48.5 259.5t48.5 259t129.5 189.5t178 71.5z" />
    <glyph glyph-name="one" unicode="1" horiz-adv-x="479" 
d="M318 1482v0h109v-1479h-219v1260h-164v219h164h110z" />
    <glyph glyph-name="two" unicode="2" horiz-adv-x="1083" 
d="M1040 3v0v219h-747q34 90 113 148l452 323q86 63 134 156t48 198q0 120 -58.5 219t-157.5 157.5t-219 58.5h-496v-219h496q90 0 153 -63.5t63 -152.5q0 -104 -90 -176l-452 -323q-107 -76 -166 -191t-59 -244v-110h986z" />
    <glyph glyph-name="three" unicode="3" horiz-adv-x="962" 
d="M786 770v0q61 -57 96.5 -134.5t35.5 -166.5v-55q0 -113 -55.5 -206.5t-148.5 -149t-207 -55.5h-465v219h465q80 0 136 56.5t56 135.5v55q0 79 -56 135.5t-136 56.5h-465v219h465q80 0 136 56t56 135q0 80 -56 136t-136 56h-465v219h465q114 0 207 -55.5t148.5 -148.5
t55.5 -207q0 -89 -35.5 -166.5t-96.5 -134.5z" />
    <glyph glyph-name="four" unicode="4" horiz-adv-x="1179" 
d="M1027 1482v0v-1041h109v-219h-109v-219h-219v219h-767v255l740 1005h246zM808 441v0v708l-521 -708h521z" />
    <glyph glyph-name="five" unicode="5" horiz-adv-x="1026" 
d="M492 2v0q136 0 247.5 66.5t178.5 178.5t67 248q0 184 -116.5 319.5t-299.5 167.5l-230 41l30 239h561v219h-754l-80 -637l437 -79q103 -17 167.5 -92.5t64.5 -177.5q0 -113 -80 -193.5t-193 -80.5h-439v-219h439z" />
    <glyph glyph-name="six" unicode="6" horiz-adv-x="1073" 
d="M537 988v0q135 0 247 -66.5t178.5 -178.5t66.5 -248t-66.5 -248t-178.5 -178.5t-247 -66.5q-127 0 -233 58.5t-174 157t-83 222.5h-3v71q0 215 84.5 407.5t235.5 336.5t354 219l75 -205q-243 -93 -386 -299q62 18 130 18zM537 221v0q113 0 193 80.5t80 193.5t-80 193.5
t-193 80.5q-114 0 -194 -80.5t-80 -193.5t80 -193.5t194 -80.5z" />
    <glyph glyph-name="seven" unicode="7" 
d="M1039 1473v0v-235l-684 -1230h-248l694 1248h-738v217h976z" />
    <glyph glyph-name="eight" unicode="8" horiz-adv-x="1065" 
d="M811 902v0q99 -68 157 -174t58 -233q0 -136 -66.5 -248t-178.5 -178.5t-247 -66.5q-136 0 -248 66.5t-178.5 178.5t-66.5 248q0 127 58 233t157 174q-78 97 -78 223q0 98 48 179t128.5 129t179.5 48q98 0 178.5 -48t129 -129t48.5 -179q0 -126 -79 -223zM397 1125v0
q0 -57 40 -97t97 -40q56 0 96 40t40 97t-40 97t-96 40q-57 0 -97 -40t-40 -97zM534 221v0q113 0 193 80.5t80 193.5t-80 193.5t-193 80.5q-114 0 -194 -80.5t-80 -193.5t80 -193.5t194 -80.5z" />
    <glyph glyph-name="nine" unicode="9" horiz-adv-x="1055" 
d="M529 488v0q-136 0 -248 66.5t-178.5 178.5t-66.5 248t66.5 247.5t178.5 178.5t248 67q126 0 232.5 -58.5t174.5 -157t83 -223.5h3v-71q0 -214 -84.5 -406.5t-236 -336.5t-354.5 -220l-75 206q243 92 386 299q-62 -18 -129 -18zM529 1254v0q-113 0 -193.5 -80t-80.5 -193
q0 -114 80.5 -194t193.5 -80t193.5 80t80.5 194q0 113 -80.5 193t-193.5 80z" />
    <glyph glyph-name="colon" unicode=":" horiz-adv-x="625" 
d="M322 270v0q56 0 96.5 -40t40.5 -97q0 -56 -40.5 -96t-96.5 -40q-57 0 -97 40t-40 96q0 57 40 97t97 40zM322 499v0q-57 0 -97 40.5t-40 96.5q0 57 40 97t97 40q56 0 96.5 -40t40.5 -97q0 -56 -40.5 -96.5t-96.5 -40.5z" />
    <glyph glyph-name="semicolon" unicode=";" horiz-adv-x="625" 
d="M358 499v0q-56 0 -96 40.5t-40 96.5q0 57 40 97t96 40q57 0 97 -40t40 -97q0 -56 -40 -96.5t-97 -40.5zM222 96v0h54h219l-219 -493h-219z" />
    <glyph glyph-name="semicolon" unicode="&#x37e;" horiz-adv-x="625" 
d="M358 499v0q-56 0 -96 40.5t-40 96.5q0 57 40 97t96 40q57 0 97 -40t40 -97q0 -56 -40 -96.5t-97 -40.5zM222 96v0h54h219l-219 -493h-219z" />
    <glyph glyph-name="less" unicode="&#x3c;" 
d="M1040 1356v-246l-690 -365l690 -366v-245l-973 515v192l973 515v0z" />
    <glyph glyph-name="equal" unicode="=" 
d="M63 478v0v217h976v-217h-976zM63 1075v0h976v-218h-976v218z" />
    <glyph glyph-name="greater" unicode="&#x3e;" 
d="M77 1356v0l973 -515v-192l-973 -515v245l690 366l-690 365v246z" />
    <glyph glyph-name="question" unicode="?" horiz-adv-x="962" 
d="M484 1668v0q121 0 220.5 -59t158.5 -158.5t59 -220.5v-28q0 -175 -128 -310l-191 -191q-64 -67 -64 -155v-137h-219v137q0 176 128 310l191 191q64 67 64 155v28q0 91 -64 155t-155 64q-90 0 -154.5 -64t-64.5 -155v-55h-219v55q0 121 59 220.5t158.5 158.5t220.5 59z
M429 270v0q57 0 97 -40.5t40 -96.5q0 -57 -40 -97t-97 -40q-56 0 -96.5 40t-40.5 97q0 56 40.5 96.5t96.5 40.5z" />
    <glyph glyph-name="at" unicode="@" horiz-adv-x="2111" 
d="M1069 1284v0q210 0 383.5 -111.5t277 -299.5t103.5 -417v-273q0 -135 -88.5 -231t-213.5 -96q-93 0 -166 53.5t-110 141.5q-84 -59 -187 -59h-52q-146 0 -250 113t-104 272v68q0 159 104 271.5t250 112.5h52q87 0 161 -41v10h226v-615q0 -34 22 -58t54 -24q31 0 53 24
t22 58v273q0 161 -72.5 293.5t-194.5 211t-270 78.5t-270.5 -78.5t-195 -211t-72.5 -293.5q0 -160 72.5 -292.5t195 -211t270.5 -78.5h273v-246h-273q-211 0 -384.5 112t-276.5 300t-103 416q0 229 103 417t276.5 299.5t384.5 111.5zM1197 377v0v68q0 58 -38 98.5t-91 40.5
h-52q-53 0 -90.5 -40.5t-37.5 -98.5v-68q0 -58 37.5 -98.5t90.5 -40.5h52q53 0 91 40.5t38 98.5z" />
    <glyph glyph-name="A" unicode="A" horiz-adv-x="1076" 
d="M540 1480v0q136 0 248 -66.5t178.5 -178.5t66.5 -248v-986h-219v603h-548v-603h-219v986q0 136 67 248t178.5 178.5t247.5 66.5zM266 823v0h548v164q0 113 -80.5 193.5t-193.5 80.5t-193.5 -80.5t-80.5 -193.5v-164z" />
    <glyph glyph-name="B" unicode="B" horiz-adv-x="1069" 
d="M832 809v0q93 -60 148 -156.5t55 -213.5q0 -120 -59 -219.5t-158.5 -159t-220.5 -59.5h-109h-219h-55h-165v657v220v191q0 113 55.5 206.5t149 149t206.5 55.5h55q113 0 206.5 -55.5t149 -149t55.5 -206.5q0 -148 -94 -260zM269 1069v0v-191h246q79 0 135.5 56t56.5 135
t-56.5 135.5t-135.5 56.5h-55q-79 0 -135 -56.5t-56 -135.5zM597 220v0q91 0 155 64.5t64 154.5q0 91 -64 155t-155 64h-82h-246v-438h328z" />
    <glyph glyph-name="C" unicode="C" horiz-adv-x="899" 
d="M774 1261v0q-143 0 -261 -70.5t-188.5 -188.5t-70.5 -261q0 -144 70.5 -262t188.5 -188.5t261 -70.5q11 0 22 1h6v-1h55v-219h-55v2q-6 -1 -11 -1q-8 -1 -17 -1q-203 0 -371 100t-268 268t-100 372q0 203 100 371t268 268t371 100h28h55v-219h-55h-28z" />
    <glyph glyph-name="D" unicode="D" horiz-adv-x="1055" 
d="M290 1v0q204 0 372 100t267.5 268t99.5 372q0 203 -99.5 371t-267.5 268t-372 100h-246v-1479h246zM263 220v0v1041h27q143 0 261.5 -70.5t188.5 -188.5t70 -261q0 -144 -70 -262t-188.5 -188.5t-261.5 -70.5h-27z" />
    <glyph glyph-name="E" unicode="E" horiz-adv-x="899" 
d="M776 1260v0q-129 0 -238.5 -57.5t-181.5 -156.5t-93 -224h595v-219h-583q31 -111 103.5 -197t175 -136t222.5 -50q11 0 21 1h7v-1h54v-219h-54v1q-6 0 -12 -1h-16q-204 0 -371.5 100t-267.5 267.5t-100 371.5t100 372t267.5 267.5t371.5 99.5h28h54v-219h-54h-28z" />
    <glyph glyph-name="F" unicode="F" horiz-adv-x="845" 
d="M486 1260v0q-94 0 -161 -66.5t-67 -161.5v-210h274h274v-219h-219h-55h-274v-602h-219v1031q0 124 60.5 225.5t162 161.5t224.5 60h320v-219h-320z" />
    <glyph glyph-name="G" unicode="G" horiz-adv-x="1119" 
d="M589 822v0h273h219v-219v-286v-251q-140 -65 -301 -65q-204 0 -371.5 100t-267.5 267.5t-100 371.5t100 372t267.5 267.5t371.5 99.5h82v-219h-82q-143 0 -261 -70t-188.5 -188t-70.5 -262q0 -143 70.5 -261.5t188.5 -188.5t261 -70q42 0 82 6v377h-54h-219v219z" />
    <glyph glyph-name="H" unicode="H" horiz-adv-x="1016" 
d="M757 1479v0h219v-1478h-219v602h-493v-602h-219v1478h219v-657h493v657z" />
    <glyph glyph-name="I" unicode="I" horiz-adv-x="305" 
d="M258 0v0v1479h-219v-1479h219z" />
    <glyph glyph-name="J" unicode="J" horiz-adv-x="962" 
d="M318 1479v0h603v-1041q0 -121 -59.5 -220.5t-159 -158.5t-220.5 -59h-109h-110h-219v219h329h109q91 0 155 64t64 155v822h-383v219z" />
    <glyph glyph-name="K" unicode="K" horiz-adv-x="906" 
d="M859 1260v0q0 -153 -69.5 -281.5t-187.5 -211.5q118 -84 187.5 -212t69.5 -281v-274h-219v274q0 105 -52 192.5t-139 139t-192 51.5v-657h-220v1479h220v-603q105 0 192 52t139 139t52 193v219h219v-219z" />
    <glyph glyph-name="L" unicode="L" horiz-adv-x="1009" 
d="M971 0v0v219h-493q-91 0 -155 64t-64 155v1041h-219v-1041q0 -121 59 -220.5t158.5 -158.5t220.5 -59h493z" />
    <glyph glyph-name="M" unicode="M" horiz-adv-x="2049" 
d="M1459 1481v0q151 0 275.5 -74t198.5 -198.5t74 -275.5v-931h-219v931q0 136 -96.5 232.5t-232.5 96.5t-232 -96.5t-96 -232.5v-931h-220v931q0 136 -96 232.5t-232 96.5t-232.5 -96.5t-96.5 -232.5v-931h-219v931q0 151 74 275.5t198.5 198.5t275.5 74q134 0 248 -59.5
t190 -161.5q76 102 190 161.5t248 59.5z" />
    <glyph glyph-name="N" unicode="N" horiz-adv-x="1179" 
d="M1137 2v0v931q0 151 -74 275.5t-198 198.5t-275 74t-275.5 -74t-198.5 -198.5t-74 -275.5v-931h219v931q0 136 96.5 232.5t232.5 96.5t232 -96.5t96 -232.5v-931h219z" />
    <glyph glyph-name="O" unicode="O" horiz-adv-x="1533" 
d="M771 2v0q202 0 368 99t265 265.5t99 368.5t-99 368t-265 265t-368 99t-368.5 -99t-265.5 -265t-99 -368t99 -368.5t265.5 -265.5t368.5 -99zM771 1250v0q142 0 259 -69.5t186.5 -186.5t69.5 -259t-69.5 -259t-186.5 -187t-259 -70t-259 70t-187 187t-70 259t70 259
t187 186.5t259 69.5z" />
    <glyph glyph-name="P" unicode="P" horiz-adv-x="1112" 
d="M585 1481v0q136 0 247.5 -67t178.5 -178.5t67 -247.5t-67 -248t-178.5 -178.5t-247.5 -66.5h-110l-219 219h329q113 0 193 80.5t80 193.5t-80 193.5t-193 80.5h-55q-113 0 -193.5 -80.5t-80.5 -193.5v-274v-219v-493h-219v986q0 136 66.5 247.5t178.5 178.5t248 67h55z
" />
    <glyph glyph-name="Q" unicode="Q" horiz-adv-x="1534" 
d="M1508 741v0q0 -146 -53 -274.5t-145 -228.5l172 -237h-271l-73 100q-82 -47 -175 -73.5t-195 -26.5q-203 0 -371 100t-268 268t-100 372t100 371.5t268 267.5t371 100q204 0 372 -100t268 -267.5t100 -371.5zM768 220v0q130 0 241 60l-156 214h271l53 -74
q53 67 82.5 148.5t29.5 172.5q0 143 -70.5 261t-188.5 188.5t-262 70.5q-143 0 -261 -70.5t-188.5 -188.5t-70.5 -261q0 -144 70.5 -262t188.5 -188.5t261 -70.5z" />
    <glyph glyph-name="R" unicode="R" horiz-adv-x="1222" 
d="M1187 1v0h-287l-324 383l-271 329h283q113 0 193.5 80.5t80.5 193.5t-80.5 193.5t-193.5 80.5h-55q-113 0 -193 -80.5t-80 -193.5v-219v-55v-219v-493h-220v986q0 136 67 248t178.5 178.5t247.5 66.5h55q136 0 248 -66.5t178.5 -178.5t66.5 -248q0 -162 -93 -288
t-241 -178z" />
    <glyph glyph-name="S" unicode="S" horiz-adv-x="1236" 
d="M803 1v0q108 0 196.5 53t141.5 142t53 197q0 129 -77.5 232.5t-203.5 142.5l-526 155q-56 17 -90 63t-34 103q0 71 50.5 121.5t122.5 50.5h704v219h-704q-108 0 -197 -53t-142 -142t-53 -196q0 -130 77.5 -233.5t203.5 -142.5l526 -155q56 -17 90 -62.5t34 -102.5
q0 -72 -50.5 -122.5t-121.5 -50.5h-759v-219h759z" />
    <glyph glyph-name="T" unicode="T" horiz-adv-x="1275" 
d="M1235 1469v0v-218h-489v-1248h-217v1248h-488v218h1194z" />
    <glyph glyph-name="U" unicode="U" horiz-adv-x="1271" 
d="M638 3v0q164 0 299.5 80.5t216.5 216t81 300.5v868h-217v-868q0 -105 -51.5 -191.5t-137.5 -137.5t-191 -51t-191 51t-137.5 137.5t-51.5 191.5v868h-217v-868q0 -165 80.5 -300.5t216 -216t300.5 -80.5z" />
    <glyph glyph-name="V" unicode="V" horiz-adv-x="1558" 
d="M905 1v0h-239l-633 1479h238l515 -1200l514 1200h238z" />
    <glyph glyph-name="W" unicode="W" horiz-adv-x="2053" 
d="M1465 1v0q151 0 275.5 74.5t198.5 198.5t74 275v931h-219v-931q0 -136 -96.5 -232t-232.5 -96q-135 0 -231.5 96t-96.5 232v931h-219v-931q0 -136 -96.5 -232t-232.5 -96t-232 96t-96 232v931h-220v-931q0 -151 74 -275t198.5 -198.5t275.5 -74.5q135 0 248.5 60
t189.5 161q77 -101 190.5 -161t247.5 -60z" />
    <glyph glyph-name="X" unicode="X" horiz-adv-x="1229" 
d="M1188 1258v0q-132 -15 -237 -86.5t-167 -184t-62 -246.5t62 -246.5t167 -184t237 -86.5v-220q-185 16 -334.5 109.5t-241.5 243.5q-93 -149 -242 -242t-332 -108v219q132 15 236.5 87t166.5 184t62 247q0 134 -62 246.5t-166.5 184t-236.5 86.5v219q184 -15 333.5 -108.5
t241.5 -243.5q93 149 242 241.5t333 107.5v-219z" />
    <glyph glyph-name="Y" unicode="Y" horiz-adv-x="1058" 
d="M801 1482v0h219v-493q0 -117 -50.5 -216.5t-136.5 -168.5t-197 -95v-505h-219v505q-110 26 -196.5 95t-136.5 168.5t-50 216.5v493h219v-493q0 -113 80.5 -193t193.5 -80t193.5 80t80.5 193v493z" />
    <glyph glyph-name="Z" unicode="Z" horiz-adv-x="1389" 
d="M251 291v0q0 -29 20 -48.5t48 -19.5h1027v-219h-1027q-119 0 -203 84t-84 203q0 73 34.5 136t95.5 104l934 607q31 23 31 57q0 28 -20 48t-48 20h-972v219h972q119 0 203 -84t84 -203q0 -73 -34 -136.5t-96 -103.5l-934 -607q-31 -23 -31 -57z" />
    <glyph glyph-name="bracketleft" unicode="[" horiz-adv-x="758" 
d="M201 -290v0v1952h380v-229h-163v-1493h163v-230h-380z" />
    <glyph glyph-name="backslash" unicode="\" horiz-adv-x="820" 
d="M800 -299v0h-231l-543 1952h232z" />
    <glyph glyph-name="bracketright" unicode="]" horiz-adv-x="758" 
d="M569 -290v0v1952h-380v-230h163v-1492h-163v-230h380z" />
    <glyph glyph-name="asciicircum" unicode="^" horiz-adv-x="1065" 
d="M274 1017v0h-252l508 650l507 -650h-252l-255 327z" />
    <glyph glyph-name="underscore" unicode="_" horiz-adv-x="1024" 
d="M0 -100h1024v-100h-1024v100z" />
    <glyph glyph-name="grave" unicode="`" horiz-adv-x="1024" 
d="M770 1078h-97l-313 179q-36 23 -57 43t-21 61q0 27 20.5 51t66.5 24q43 0 74.5 -18t70.5 -56z" />
    <glyph glyph-name="a" unicode="a" horiz-adv-x="1065" 
d="M537 989v0q136 0 248 -66.5t178.5 -178.5t66.5 -248v-493h-219v219v274q0 113 -80.5 193.5t-193.5 80.5t-193.5 -80.5t-80.5 -193.5t80.5 -193.5t193.5 -80.5h274l-219 -219h-55q-136 0 -248 66.5t-178.5 178.5t-66.5 248t66.5 248t178.5 178.5t248 66.5z" />
    <glyph glyph-name="b" unicode="b" horiz-adv-x="1065" 
d="M536 989v0q136 0 247.5 -66.5t178.5 -178.5t67 -248t-67 -248t-178.5 -178.5t-247.5 -66.5t-248 66.5t-178.5 178.5t-66.5 248v219v274v493h219v-493v-219v-55v-219q0 -113 80 -193.5t194 -80.5q113 0 193 80.5t80 193.5t-80 193.5t-193 80.5h-274l219 219h55z" />
    <glyph glyph-name="c" unicode="c" horiz-adv-x="632" 
d="M532 770v0q-113 0 -193.5 -80.5t-80.5 -193.5t80.5 -193.5t193.5 -80.5h55v-219h-55q-136 0 -247.5 66.5t-178.5 178.5t-67 248t67 248t178.5 178.5t247.5 66.5h55v-219h-55z" />
    <glyph glyph-name="d" unicode="d" horiz-adv-x="1069" 
d="M535 989v0q-135 0 -247 -66.5t-178.5 -178.5t-66.5 -248t66.5 -248t178.5 -178.5t247 -66.5q136 0 248 66.5t178.5 178.5t66.5 248v219v274v493h-219v-493v-219v-55v-219q0 -113 -80 -193.5t-194 -80.5q-113 0 -193 80.5t-80 193.5t80 193.5t193 80.5h274l-219 219h-55z
" />
    <glyph glyph-name="e" unicode="e" horiz-adv-x="1065" 
d="M530 987v0q136 0 248 -66.5t178.5 -178.5t66.5 -248v-109h-55h-164h-525q33 -74 100 -119t151 -45h55h219h164l-219 -219h-164h-55q-136 0 -248 66.5t-178.5 178.5t-66.5 247q0 136 66.5 248t178.5 178.5t248 66.5zM279 604v0h501q-32 74 -99 119t-151 45t-151 -45
t-100 -119z" />
    <glyph glyph-name="f" unicode="f" horiz-adv-x="803" 
d="M543 1261v0q-68 0 -116.5 -48t-48.5 -116v-110h110h274v-219h-219h-55h-110v-55v-711h-219v711v55h-109v219h109v110q0 106 52 193t139 138.5t193 51.5h219v-219h-219z" />
    <glyph glyph-name="g" unicode="g" horiz-adv-x="1069" 
d="M534 987v0q136 0 248 -66.5t178.5 -178.5t66.5 -248v-54v-55v-383q0 -136 -66.5 -248t-178.5 -178.5t-248 -66.5h-274v219h274q113 0 193.5 80t80.5 194v71v148v164v55v54q0 114 -80.5 194t-193.5 80t-193.5 -80t-80.5 -194q0 -113 80.5 -193t193.5 -80h274l-219 -219
h-55q-136 0 -248 66.5t-178.5 178.5t-66.5 247q0 136 66.5 248t178.5 178.5t248 66.5z" />
    <glyph glyph-name="h" unicode="h" horiz-adv-x="962" 
d="M483 987v0q121 0 220.5 -59t158.5 -158.5t59 -220.5v-547h-219v547q0 91 -64 155t-155 64q-90 0 -154.5 -64t-64.5 -155v-547h-219v547v931h219v-552q100 59 219 59z" />
    <glyph glyph-name="i" unicode="i" horiz-adv-x="316" 
d="M46 4v0v986h219v-986h-219zM156 1154v0q-57 0 -97 40.5t-40 96.5q0 57 40 97t97 40q56 0 96.5 -40t40.5 -97q0 -56 -40.5 -96.5t-96.5 -40.5z" />
    <glyph glyph-name="j" unicode="j" horiz-adv-x="796" 
d="M638 1154v0q-56 0 -96.5 40.5t-40.5 96.5q0 57 40.5 97t96.5 40q57 0 97 -40t40 -97q0 -56 -40 -96.5t-97 -40.5zM529 -51v0v1041h219v-1041q0 -120 -59.5 -219.5t-158.5 -159t-220 -59.5h-55h-219v219h274q90 0 154.5 64.5t64.5 154.5z" />
    <glyph glyph-name="k" unicode="k" horiz-adv-x="735" 
d="M694 880v0q0 -98 -40 -182.5t-109 -145.5q69 -61 109 -146t40 -183v-219h-219v219q0 91 -64 155t-155 64v-438h-219v1479h219v-822q91 0 155 64.5t64 154.5v110h219v-110z" />
    <glyph glyph-name="l" unicode="l" horiz-adv-x="522" 
d="M478 4v0v219q-90 0 -154.5 64.5t-64.5 154.5v1041h-219v-1041q0 -120 59 -219.5t158.5 -159t220.5 -59.5z" />
    <glyph glyph-name="m" unicode="m" horiz-adv-x="1627" 
d="M1142 988v0q121 0 220.5 -59t158.5 -158.5t59 -220.5v-548h-219v548q0 91 -64 155t-155 64t-155 -64t-64 -155v-548h-219v548q0 91 -64.5 155t-154.5 64q-91 0 -155 -64t-64 -155v-548h-219v548q0 121 59 220.5t158.5 158.5t220.5 59q98 0 182.5 -40t145.5 -109
q61 69 146 109t183 40z" />
    <glyph glyph-name="n" unicode="n" horiz-adv-x="962" 
d="M923 2v0v548q0 121 -59 220.5t-158.5 158.5t-220.5 59t-220.5 -59t-158.5 -158.5t-59 -220.5v-548h219v548q0 91 64.5 155t154.5 64q91 0 155 -64t64 -155v-548h219z" />
    <glyph glyph-name="o" unicode="o" horiz-adv-x="1058" 
d="M533 0v0q134 0 245 66t177 176.5t66 245.5t-66 245.5t-177 176.5t-245 66q-135 0 -246 -66t-177 -176.5t-66 -245.5t66 -245.5t177 -176.5t246 -66zM533 759v0q112 0 191.5 -79.5t79.5 -191.5t-79.5 -191.5t-191.5 -79.5q-113 0 -192.5 79.5t-79.5 191.5t79.5 191.5
t192.5 79.5z" />
    <glyph glyph-name="p" unicode="p" horiz-adv-x="1062" 
d="M536 2v0q136 0 248 67t178.5 178.5t66.5 247.5t-66.5 248t-178.5 178.5t-248 66.5t-248 -66.5t-178.5 -178.5t-66.5 -248v-219v-274v-493h219v493v219v55v219q0 113 80.5 193.5t193.5 80.5t193.5 -80.5t80.5 -193.5t-80.5 -193.5t-193.5 -80.5h-274l219 -219h55z" />
    <glyph glyph-name="q" unicode="q" horiz-adv-x="1055" 
d="M528 0v0q-136 0 -248 66.5t-178.5 178.5t-66.5 248t66.5 248t178.5 178.5t248 66.5q135 0 247 -66.5t178.5 -178.5t66.5 -248v-219v-274v-493h-219v493v219v55v219q0 113 -80 193.5t-193 80.5q-114 0 -194 -80.5t-80 -193.5t80 -193.5t194 -80.5h273l-219 -219h-54z" />
    <glyph glyph-name="r" unicode="r" horiz-adv-x="526" 
d="M485 985v0v-221q-94 -12 -156.5 -80.5t-62.5 -163.5v-520h-219v520q0 124 58.5 227t157.5 166t222 72z" />
    <glyph glyph-name="s" unicode="s" horiz-adv-x="742" 
d="M409 0v0q121 0 207.5 86.5t86.5 207.5q0 102 -61.5 180.5t-161.5 105.5l-159 39q-25 7 -41 27t-16 46q0 31 22 53t53 22h364v219h-364q-121 0 -207.5 -86t-86.5 -208q0 -101 61.5 -180t161.5 -105l159 -40q25 -7 40.5 -27t15.5 -46q0 -31 -21.5 -53t-52.5 -22h-364v-219
h364z" />
    <glyph glyph-name="t" unicode="t" horiz-adv-x="689" 
d="M646 986v0h-219v-548q0 -90 64.5 -154.5t154.5 -64.5v-219q-121 0 -220 59.5t-158.5 159t-59.5 219.5v548h-164v219h164v274h219v-274h219v-219z" />
    <glyph glyph-name="u" unicode="u" horiz-adv-x="1016" 
d="M975 988v0v-521q0 -128 -62.5 -233.5t-168.5 -168.5t-234 -63t-234 63t-169 168.5t-63 233.5v521h220v-521q0 -102 72 -174t174 -72t174 72t72 174v521h219z" />
    <glyph glyph-name="v" unicode="v" horiz-adv-x="959" 
d="M595 3v0h-229l-325 977h229l211 -634l211 634h229z" />
    <glyph glyph-name="w" unicode="w" horiz-adv-x="1609" 
d="M1131 2v0q121 0 220.5 59t158.5 158.5t59 220.5v548h-219v-548q0 -91 -64 -155t-155 -64t-155 64t-64 155v548h-219v-548q0 -91 -64.5 -155t-154.5 -64q-91 0 -155 64t-64 155v548h-219v-548q0 -121 59 -220.5t158.5 -158.5t220.5 -59q98 0 182.5 40t145.5 109
q61 -69 146 -109t183 -40z" />
    <glyph glyph-name="x" unicode="x" horiz-adv-x="845" 
d="M804 769v0q-113 0 -193.5 -80.5t-80.5 -193.5t80.5 -193.5t193.5 -80.5v-219q-116 0 -215 49.5t-168 134.5q-69 -85 -168 -134.5t-216 -49.5v219q114 0 194 80.5t80 193.5t-80 193.5t-194 80.5v219q117 0 216 -49.5t168 -134.5q69 85 168 134.5t215 49.5v-219z" />
    <glyph glyph-name="y" unicode="y" horiz-adv-x="1009" 
d="M751 989v0h219v-493v-27v-466q0 -136 -66.5 -247.5t-178.5 -178.5t-248 -67h-274v220h274q114 0 194 80t80 193v72q-110 -72 -246 -72q-129 0 -234.5 63t-168.5 169t-63 234v520h219v-520q0 -102 72.5 -174.5t174.5 -72.5t174 72.5t72 174.5v27v493z" />
    <glyph glyph-name="z" unicode="z" horiz-adv-x="849" 
d="M261 253v0q0 -13 8.5 -22t21.5 -9h517v-219h-517q-103 0 -176.5 73.5t-73.5 176.5q0 65 32.5 122t89.5 92l411 247q15 10 15 26q0 12 -9 21t-21 9h-463v219h463q103 0 176 -73t73 -176q0 -66 -32 -122.5t-89 -91.5l-412 -247q-14 -10 -14 -26z" />
    <glyph glyph-name="braceleft" unicode="{" 
d="M787 -284v0q-123 0 -210.5 90t-87.5 216v208q0 214 -156 379l-83 83l83 83q156 165 156 379v208q0 126 87.5 216t210.5 90v-230q-33 0 -57 -22.5t-24 -53.5v-208q0 -250 -152 -462q152 -212 152 -462v-208q0 -31 24 -53.5t57 -22.5v-230z" />
    <glyph glyph-name="bar" unicode="|" 
d="M658 -344v0v1952h-217v-1952h217z" />
    <glyph glyph-name="braceright" unicode="}" 
d="M306 -280v0q124 0 211.5 89.5t87.5 216.5v208q0 214 156 379l82 83l-82 83q-156 165 -156 379v208q0 126 -87.5 216t-211.5 90v-230q34 0 57.5 -22.5t23.5 -53.5v-208q0 -250 153 -462q-153 -213 -153 -462v-208q0 -32 -23.5 -54.5t-57.5 -22.5v-229z" />
    <glyph glyph-name="asciitilde" unicode="~" 
d="M758 510v0q76 0 151 37l132 67l-63 193l-132 -67q-129 -62 -244 51q-92 92 -200.5 114t-213.5 -31l-132 -67l63 -193l132 67q129 62 244 -51q124 -120 263 -120z" />
    <glyph glyph-name="exclamdown" unicode="&#xa1;" horiz-adv-x="672" 
 />
    <glyph glyph-name="cent" unicode="&#xa2;" horiz-adv-x="1139" 
 />
    <glyph glyph-name="sterling" unicode="&#xa3;" 
d="M633 1368q-110 0 -173 -93q-57 -83 -57 -228q0 -21 1 -42q0 -138 48 -262h365v-80h-331q50 -92 50 -191q0 -170 -146 -362h393q94 0 154 133h92l-111 -253h-801l1 54q177 226 177 422q0 103 -48 197h-168v80h133q-56 137 -56 243q0 220 132 349q128 129 350 129
q98 0 204 -16q132 -17 132 -41v-193h-69q-3 51 -81 103q-78 51 -185 51h-6z" />
    <glyph glyph-name="currency" unicode="&#xa4;" 
d="M435 577q34 -29 77 -40q22 -5 43 -5t43 5q42 11 76 40q38 34 56 87q9 27 9 53q0 27 -9 53q-18 53 -56 87q-34 29 -77 40q-22 5 -43 5q-22 0 -43 -6q-43 -11 -76 -39q-37 -33 -55 -86q-10 -27 -10 -55q0 -25 9 -51q17 -54 56 -88zM252 904l-117 117l114 115l125 -125
q11 8 74 26q54 17 108 17q50 0 101 -14q65 -20 78 -28l124 124l114 -115l-116 -116q35 -52 52 -107q11 -40 11 -81q0 -40 -11 -81q-17 -55 -52 -107l116 -116l-114 -115l-124 124q-13 -9 -78 -28q-51 -14 -102 -14t-103 14q-66 19 -79 28l-124 -124l-114 115l117 116
q-36 52 -52 108q-11 40 -11 80q0 42 12 83q16 54 51 104z" />
    <glyph glyph-name="yen" unicode="&#xa5;" 
d="M698 550v-259q0 -222 99 -222h80v-69h-648v69h80q99 0 99 222v259h-228v80h228v63l-19 37h-209v80h169l-207 411q-85 144 -132 144h-51v69h528v-69h-51q-52 0 -52 -36q0 -47 56 -138l176 -379l172 388q46 78 46 122q0 43 -52 43h-48v69h415v-69h-36q-78 0 -164 -152
l-194 -403h173v-80h-211l-19 -39v-61h230v-80h-230z" />
    <glyph glyph-name="brokenbar" unicode="&#xa6;" 
d="M426 371h256v-789h-256v789zM426 1434h256v-789h-256v789z" />
    <glyph glyph-name="section" unicode="&#xa7;" 
d="M599 332q122 74 122 206v6q-1 91 -67 137t-138 46q-54 0 -94 -38t-40 -118q0 -128 217 -239zM513 -339q88 4 148 57q71 63 71 170q0 130 -306 276q-132 69 -185 142.5t-53 171.5q0 141 89 230q76 74 177 91q-155 68 -215 150.5t-60 180.5q0 141 91.5 235t268.5 95
q135 0 218 -19t83 -45v-200h-77q-5 94 -65 137t-178 46q-67 0 -107 -38t-40 -118q0 -137 276 -269q158 -71 214.5 -148.5t56.5 -182.5q0 -164 -101 -275q-52 -44 -109 -71q117 -61 168 -131t51 -174q0 -164 -120 -278.5t-334 -115.5q-111 0 -193.5 19.5t-82.5 44.5v200h87
q5 -93 64 -135.5t163 -45.5z" />
    <glyph glyph-name="dieresis" unicode="&#xa8;" horiz-adv-x="1024" 
d="M244 1291l86 81q15 13 30 13q13 0 31 -16l84 -82q12 -15 12 -28q0 -14 -15 -29l-82 -85q-22 -19 -30 -19q-17 0 -30 13l-92 98q-10 12 -10 24q0 15 16 30zM609 1291l86 81q15 13 30 13q13 0 31 -16l84 -82q12 -15 12 -28q0 -14 -15 -29l-82 -85q-22 -19 -30 -19
q-17 0 -30 13l-92 97q-10 13 -10 25q0 14 16 30z" />
    <glyph glyph-name="copyright" unicode="&#xa9;" horiz-adv-x="1674" 
d="M1150 465h68v-102q0 -37 -79.5 -79.5t-247.5 -44.5q-159 0 -285.5 70.5t-188 182.5t-61.5 227q0 114 62.5 227t190 182.5t269.5 69.5q66 0 110.5 -13.5t62.5 -13.5q17 0 17 28h63l75 -207h-64q-105 96 -154.5 119t-125.5 23q-75 -5 -178.5 -102.5t-103.5 -298.5
q0 -166 92.5 -298.5t218.5 -132.5q118 1 187.5 41.5t71.5 121.5zM840 1462q152 0 291 -60.5t243 -169.5q99 -102 152.5 -237.5t53.5 -276.5q0 -142 -53.5 -275.5t-156.5 -239.5q-105 -110 -243 -168.5t-294 -58.5q-153 0 -289 59.5t-242 169.5q-103 105 -155.5 237
t-52.5 276q0 143 52.5 276.5t153.5 237.5q102 109 242.5 169.5t297.5 60.5zM361 1193q-86 -84 -140.5 -209t-54.5 -266q0 -142 54.5 -265.5t154.5 -219.5q98 -91 214.5 -138t244.5 -47q130 0 248 46.5t215 136.5q100 97 155.5 222t55.5 265q0 139 -55.5 266t-151.5 220
q-96 91 -215.5 138.5t-246.5 47.5q-130 0 -250.5 -47.5t-227.5 -149.5z" />
    <glyph glyph-name="ordfeminine" unicode="&#xaa;" horiz-adv-x="648" 
 />
    <glyph glyph-name="guillemotleft" unicode="&#xab;" horiz-adv-x="987" 
d="M174 479l353 313h48v-47l-205 -266l205 -266v-47h-48zM485 479l353 313h48v-47l-205 -266l205 -266v-47h-48z" />
    <glyph glyph-name="logicalnot" unicode="&#xac;" 
d="M86 773h916v-503l-1 -1h-174v392h-741v112z" />
    <glyph glyph-name="registered" unicode="&#xae;" horiz-adv-x="1674" 
d="M738 1105v-393q0 -69 23 -86t49 -17h3q27 1 44 31t35 99q13 54 13 111q0 16 -1 33q-4 74 -29.5 135t-48 74t-43.5 13h-45zM977 574l63 -100q96 -141 169 -141h22v-61h-367v61h20q14 0 14 13q0 30 -67 125l-35 59q-31 1 -58 17v-88q0 -126 52 -126h21v-61h-368v61h20
q53 0 53 126v520q0 126 1 126h-55v61h369q87 -1 161 -53q65 -43 95.5 -112t30.5 -140q0 -69 -30 -137t-111 -150zM840 1462q152 0 291 -60.5t243 -169.5q99 -102 152.5 -237.5t53.5 -276.5q0 -142 -53.5 -275.5t-156.5 -239.5q-105 -110 -243 -168.5t-294 -58.5
q-153 0 -289 59.5t-242 169.5q-103 105 -155.5 237t-52.5 276q0 143 52.5 276.5t153.5 237.5q102 109 242.5 169.5t297.5 60.5zM361 1193q-86 -84 -140.5 -209t-54.5 -266q0 -142 54.5 -265.5t154.5 -219.5q98 -91 214.5 -138t244.5 -47q130 0 248 46.5t215 136.5
q100 97 155.5 222t55.5 265q0 139 -55.5 266t-151.5 220q-96 91 -215.5 138.5t-246.5 47.5q-130 0 -250.5 -47.5t-227.5 -149.5z" />
    <glyph glyph-name="macron" unicode="&#xaf;" horiz-adv-x="670" 
 />
    <glyph glyph-name="degree" unicode="&#xb0;" horiz-adv-x="767" 
d="M385 810v0q134 0 229.5 95.5t95.5 230.5q0 134 -95.5 229.5t-229.5 95.5q-135 0 -230.5 -95.5t-95.5 -229.5q0 -135 95.5 -230.5t230.5 -95.5zM385 1244v0q44 0 76 -32t32 -76q0 -45 -32 -77t-76 -32q-45 0 -77 32t-32 77q0 44 32 76t77 32z" />
    <glyph glyph-name="plusminus" unicode="&#xb1;" horiz-adv-x="1014" 
 />
    <glyph glyph-name="twosuperior" unicode="&#xb2;" horiz-adv-x="1014" 
 />
    <glyph glyph-name="threesuperior" unicode="&#xb3;" horiz-adv-x="1014" 
 />
    <glyph glyph-name="acute" unicode="&#xb4;" horiz-adv-x="1024" 
d="M482 1366q38 37 67 53.5t67 16.5t57.5 -22.5t19.5 -52.5q0 -44 -21 -64t-56 -42l-309 -177h-85z" />
    <glyph glyph-name="mu" unicode="&#xb5;" horiz-adv-x="1180" 
 />
    <glyph glyph-name="paragraph" unicode="&#xb6;" 
d="M1010 1441v-82h-127v-1365h-118v1365h-130v-1365h-160v700q-161 7 -269 117.5t-108 254.5q0 170 114.5 272.5t316.5 102.5h481z" />
    <glyph glyph-name="periodcentered" unicode="&#xb7;" horiz-adv-x="553" 
d="M147 717q0 54 38 92t92 38t92 -38t38 -92t-38 -92t-92 -38t-92 38t-38 92z" />
    <glyph glyph-name="periodcentered" unicode="&#x2219;" horiz-adv-x="553" 
d="M147 717q0 54 38 92t92 38t92 -38t38 -92t-38 -92t-92 -38t-92 38t-38 92z" />
    <glyph glyph-name="cedilla" unicode="&#xb8;" horiz-adv-x="1068" 
d="M355 -257q116 -71 174 -71q55 0 78 17t23 61q0 41 -41 57q-30 11 -93 11q-24 0 -54 -2l54 184h107l-35 -87q2 1 34 2q98 0 151.5 -45t53.5 -119q0 -78 -64 -126.5t-177 -48.5q-115 0 -211 38v129z" />
    <glyph glyph-name="onesuperior" unicode="&#xb9;" horiz-adv-x="1014" 
 />
    <glyph glyph-name="ordmasculine" unicode="&#xba;" horiz-adv-x="718" 
 />
    <glyph glyph-name="guillemotright" unicode="&#xbb;" horiz-adv-x="987" 
d="M460 166h-48v47l205 266l-205 266v47h48l353 -313zM149 166h-48v47l205 266l-205 266v47h48l353 -313z" />
    <glyph glyph-name="onequarter" unicode="&#xbc;" horiz-adv-x="1708" 
 />
    <glyph glyph-name="onehalf" unicode="&#xbd;" horiz-adv-x="1964" 
 />
    <glyph glyph-name="threequarters" unicode="&#xbe;" horiz-adv-x="1708" 
 />
    <glyph glyph-name="questiondown" unicode="&#xbf;" horiz-adv-x="748" 
 />
    <glyph glyph-name="Agrave" unicode="&#xc0;" horiz-adv-x="1540" 
 />
    <glyph glyph-name="Aacute" unicode="&#xc1;" horiz-adv-x="1540" 
 />
    <glyph glyph-name="Acircumflex" unicode="&#xc2;" horiz-adv-x="1540" 
 />
    <glyph glyph-name="Atilde" unicode="&#xc3;" horiz-adv-x="1540" 
 />
    <glyph glyph-name="Adieresis" unicode="&#xc4;" horiz-adv-x="1540" 
 />
    <glyph glyph-name="Aring" unicode="&#xc5;" horiz-adv-x="1540" 
 />
    <glyph glyph-name="AE" unicode="&#xc6;" horiz-adv-x="2118" 
 />
    <glyph glyph-name="Ccedilla" unicode="&#xc7;" horiz-adv-x="1399" 
 />
    <glyph glyph-name="Egrave" unicode="&#xc8;" horiz-adv-x="1151" 
 />
    <glyph glyph-name="Eacute" unicode="&#xc9;" horiz-adv-x="1151" 
 />
    <glyph glyph-name="Ecircumflex" unicode="&#xca;" horiz-adv-x="1151" 
 />
    <glyph glyph-name="Edieresis" unicode="&#xcb;" horiz-adv-x="1151" 
 />
    <glyph glyph-name="Igrave" unicode="&#xcc;" horiz-adv-x="657" 
 />
    <glyph glyph-name="Iacute" unicode="&#xcd;" horiz-adv-x="657" 
 />
    <glyph glyph-name="Icircumflex" unicode="&#xce;" horiz-adv-x="657" 
 />
    <glyph glyph-name="Idieresis" unicode="&#xcf;" horiz-adv-x="657" 
 />
    <glyph glyph-name="Eth" unicode="&#xd0;" horiz-adv-x="1518" 
 />
    <glyph glyph-name="Ntilde" unicode="&#xd1;" horiz-adv-x="1554" 
 />
    <glyph glyph-name="Ograve" unicode="&#xd2;" horiz-adv-x="1614" 
 />
    <glyph glyph-name="Oacute" unicode="&#xd3;" horiz-adv-x="1614" 
 />
    <glyph glyph-name="Ocircumflex" unicode="&#xd4;" horiz-adv-x="1614" 
 />
    <glyph glyph-name="Otilde" unicode="&#xd5;" horiz-adv-x="1614" 
 />
    <glyph glyph-name="Odieresis" unicode="&#xd6;" horiz-adv-x="1614" 
 />
    <glyph glyph-name="multiply" unicode="&#xd7;" 
d="M554 604l-270 -270l-113 113l270 270l-270 270l113 113l270 -270l270 270l113 -113l-270 -270l270 -270l-113 -113z" />
    <glyph glyph-name="Oslash" unicode="&#xd8;" horiz-adv-x="1614" 
 />
    <glyph glyph-name="Ugrave" unicode="&#xd9;" horiz-adv-x="1501" 
 />
    <glyph glyph-name="Uacute" unicode="&#xda;" horiz-adv-x="1501" 
 />
    <glyph glyph-name="Ucircumflex" unicode="&#xdb;" horiz-adv-x="1501" 
 />
    <glyph glyph-name="Udieresis" unicode="&#xdc;" horiz-adv-x="1501" 
 />
    <glyph glyph-name="Yacute" unicode="&#xdd;" horiz-adv-x="1233" 
 />
    <glyph glyph-name="Thorn" unicode="&#xde;" horiz-adv-x="1120" 
 />
    <glyph glyph-name="germandbls" unicode="&#xdf;" horiz-adv-x="1251" 
 />
    <glyph glyph-name="agrave" unicode="&#xe0;" horiz-adv-x="922" 
 />
    <glyph glyph-name="aacute" unicode="&#xe1;" horiz-adv-x="922" 
 />
    <glyph glyph-name="acircumflex" unicode="&#xe2;" horiz-adv-x="922" 
 />
    <glyph glyph-name="atilde" unicode="&#xe3;" horiz-adv-x="922" 
 />
    <glyph glyph-name="adieresis" unicode="&#xe4;" horiz-adv-x="922" 
 />
    <glyph glyph-name="aring" unicode="&#xe5;" horiz-adv-x="922" 
 />
    <glyph glyph-name="ae" unicode="&#xe6;" horiz-adv-x="1454" 
 />
    <glyph glyph-name="ccedilla" unicode="&#xe7;" horiz-adv-x="905" 
 />
    <glyph glyph-name="egrave" unicode="&#xe8;" horiz-adv-x="909" 
 />
    <glyph glyph-name="eacute" unicode="&#xe9;" horiz-adv-x="909" 
 />
    <glyph glyph-name="ecircumflex" unicode="&#xea;" horiz-adv-x="909" 
 />
    <glyph glyph-name="edieresis" unicode="&#xeb;" horiz-adv-x="909" 
 />
    <glyph glyph-name="igrave" unicode="&#xec;" horiz-adv-x="514" 
 />
    <glyph glyph-name="iacute" unicode="&#xed;" horiz-adv-x="514" 
 />
    <glyph glyph-name="icircumflex" unicode="&#xee;" horiz-adv-x="514" 
 />
    <glyph glyph-name="idieresis" unicode="&#xef;" horiz-adv-x="514" 
 />
    <glyph glyph-name="eth" unicode="&#xf0;" horiz-adv-x="1139" 
 />
    <glyph glyph-name="ntilde" unicode="&#xf1;" 
 />
    <glyph glyph-name="ograve" unicode="&#xf2;" horiz-adv-x="1010" 
 />
    <glyph glyph-name="oacute" unicode="&#xf3;" horiz-adv-x="1010" 
 />
    <glyph glyph-name="ocircumflex" unicode="&#xf4;" horiz-adv-x="1010" 
 />
    <glyph glyph-name="otilde" unicode="&#xf5;" horiz-adv-x="1010" 
 />
    <glyph glyph-name="odieresis" unicode="&#xf6;" horiz-adv-x="1010" 
 />
    <glyph glyph-name="divide" unicode="&#xf7;" 
d="M80 637v160h948v-160h-948zM428 404l95 89q18 15 34 15q14 0 34 -17l93 -91q13 -17 13 -31q0 -15 -16 -32l-91 -94q-24 -21 -33 -21q-19 0 -34 15l-101 107q-11 14 -11 27q0 16 17 33zM428 1090l95 89q18 15 34 15q14 0 34 -17l93 -91q13 -17 13 -31q0 -15 -16 -32
l-91 -94q-24 -21 -33 -21q-19 0 -34 15l-101 107q-11 14 -11 27q0 16 17 33z" />
    <glyph glyph-name="oslash" unicode="&#xf8;" horiz-adv-x="1010" 
 />
    <glyph glyph-name="ugrave" unicode="&#xf9;" horiz-adv-x="1059" 
 />
    <glyph glyph-name="uacute" unicode="&#xfa;" horiz-adv-x="1059" 
 />
    <glyph glyph-name="ucircumflex" unicode="&#xfb;" horiz-adv-x="1059" 
 />
    <glyph glyph-name="udieresis" unicode="&#xfc;" horiz-adv-x="1059" 
 />
    <glyph glyph-name="yacute" unicode="&#xfd;" horiz-adv-x="868" 
 />
    <glyph glyph-name="thorn" unicode="&#xfe;" horiz-adv-x="1010" 
 />
    <glyph glyph-name="ydieresis" unicode="&#xff;" horiz-adv-x="868" 
 />
    <glyph glyph-name="dotlessi" unicode="&#x131;" horiz-adv-x="610" 
d="M434 226q0 -165 52 -165h94v-61h-538v61h94q52 0 52 165v427q0 70 -63 70h-96v44q223 70 285 191h120v-732z" />
    <glyph glyph-name="circumflex" unicode="&#x2c6;" horiz-adv-x="1200" 
d="M6608 -220v0v217h-1086v-217h1086zM334 1017v0h-252l508 650l507 -650h-252l-255 327z" />
    <glyph glyph-name="caron" unicode="&#x2c7;" horiz-adv-x="1081" 
d="M221 1437h99l221 -193l220 193h99l-245 -358h-149z" />
    <glyph glyph-name="uni02C9" unicode="&#x2c9;" horiz-adv-x="1068" 
d="M254 1185v145h560v-145h-560z" />
    <glyph glyph-name="breve" unicode="&#x2d8;" horiz-adv-x="1071" 
d="M219 1369h94q19 -80 70.5 -110.5t152.5 -30.5q100 0 150.5 30t69.5 111h94q-22 -144 -100.5 -217t-213.5 -73q-134 0 -214 73.5t-103 216.5z" />
    <glyph glyph-name="dotaccent" unicode="&#x2d9;" horiz-adv-x="1068" 
d="M434 1292l69 72q9 8 21 13.5t26 5.5q13 0 24.5 -5.5t20.5 -14.5l70 -75q7 -5 9.5 -12t2.5 -15q-1 -9 -3 -15.5t-10 -14.5l-71 -76q-14 -13 -22.5 -18t-20.5 -5q-16 0 -28.5 5t-19.5 14l-74 86q-6 6 -8 12t-2 14q0 6 3.5 13.5t12.5 15.5z" />
    <glyph glyph-name="ring" unicode="&#x2da;" horiz-adv-x="1068" 
d="M435 1274q0 -45 30.5 -72t67.5 -27t67.5 27t30.5 72q0 43 -31 70t-67 27t-67 -27t-31 -70zM335 1274q0 78 55.5 136t142.5 58q89 0 145 -58.5t56 -135.5q0 -79 -56 -137t-145 -58q-87 0 -142.5 58t-55.5 137z" />
    <glyph glyph-name="ogonek" unicode="&#x2db;" horiz-adv-x="1069" 
d="M697 0q-86 -65 -121 -114t-35 -104q0 -47 22.5 -70t55.5 -23q74 0 139 64l31 -25q-39 -68 -99 -105t-134 -37q-81 0 -130.5 39.5t-49.5 96.5q0 76 58.5 151.5t170.5 126.5h92z" />
    <glyph glyph-name="tilde" unicode="&#x2dc;" horiz-adv-x="1072" 
d="M856 1392q-22 -113 -75 -169t-144 -56q-70 0 -139.5 23.5t-121.5 23.5q-27 0 -44 -16t-31 -76h-67q21 117 74.5 174t146.5 57q62 -1 132 -24t122 -23q29 0 46 16t34 70h67z" />
    <glyph glyph-name="hungarumlaut" unicode="&#x2dd;" horiz-adv-x="1073" 
d="M234 1079l149 271q25 43 51 65t63 22q41 0 65.5 -23.5t24.5 -50.5q0 -15 -11 -33.5t-32 -40.5l-212 -210h-98zM519 1079l149 271q25 43 51 65t63 22q41 0 65.5 -23.5t24.5 -50.5q0 -15 -11 -33.5t-32 -40.5l-212 -210h-98z" />
    <glyph glyph-name="endash" unicode="&#x2013;" 
d="M56 399v160h996v-160h-996z" />
    <glyph glyph-name="emdash" unicode="&#x2014;" horiz-adv-x="2048" 
d="M0 399v160h2048v-160h-2048z" />
    <glyph glyph-name="quoteleft" unicode="&#x2018;" horiz-adv-x="625" 
d="M401 1006q-75 0 -123 70.5t-48 156.5q0 108 74 231t184 123v-55q-73 -43 -87 -188q0 -115 129 -157v-46z" />
    <glyph glyph-name="quoteright" unicode="&#x2019;" horiz-adv-x="625" 
d="M224 1587q75 0 123 -70.5t48 -156.5q0 -108 -74 -231t-184 -123v55q73 43 87 188q0 115 -129 157v46z" />
    <glyph glyph-name="quotesinglbase" unicode="&#x201a;" horiz-adv-x="625" 
d="M348 268q75 0 123 -70.5t48 -156.5q0 -108 -74 -231t-184 -123v55q73 43 87 188q0 115 -129 157v46z" />
    <glyph glyph-name="quotedblleft" unicode="&#x201c;" horiz-adv-x="985" 
d="M732 1436v0l160 -432l-4 -2h-231l-160 433l4 1h231zM81 1436v0h231l160 -432l-4 -2h-231l-159 433z" />
    <glyph glyph-name="quotedblright" unicode="&#x201d;" horiz-adv-x="985" 
d="M250 1437v0h231l4 -2l-160 -432h-231l-4 1zM901 1437v0l3 -2l-159 -432h-231l-4 1l159 433h232z" />
    <glyph glyph-name="quotedblbase" unicode="&#x201e;" horiz-adv-x="985" 
d="M278 268v0h232l3 -2l-159 -432h-231l-4 2zM929 268v0l4 -2l-159 -432h-232l-3 2l159 432h231z" />
    <glyph glyph-name="dagger" unicode="&#x2020;" 
d="M520 -268q-10 369 -44.5 561t-72.5 348q69 67 118 293q-132 0 -203 -53.5t-115 -53.5q-55 0 -93 35.5t-38 102.5q0 69 37 104t92 35q51 0 122 -53.5t198 -53.5q-28 131 -67.5 203.5t-39.5 116.5q0 55 35.5 93t101.5 38t101.5 -38t35.5 -93q0 -44 -39.5 -116.5
t-67.5 -203.5q127 0 198 53.5t122 53.5q55 0 92 -35t37 -104q0 -67 -38 -102.5t-93 -35.5q-44 0 -115 53.5t-203 53.5q49 -226 118 -293q-38 -156 -72.5 -348t-44.5 -560z" />
    <glyph glyph-name="daggerdbl" unicode="&#x2021;" 
d="M581 246q132 0 203 53.5t115 53.5q55 0 93 -35.5t38 -102.5q0 -69 -37 -104t-92 -35q-51 0 -122 53.5t-198 53.5q28 -131 67.5 -203.5t39.5 -116.5q0 -55 -35.5 -93t-101.5 -38t-101.5 38t-35.5 93q0 44 39.5 116.5t67.5 203.5q-127 0 -198 -53.5t-122 -53.5
q-55 0 -92 35t-37 104q0 67 38 102.5t93 35.5q44 0 115 -53.5t203 -53.5q-49 226 -118 344q69 118 118 344q-132 0 -203 -53.5t-115 -53.5q-55 0 -93 35.5t-38 102.5q0 69 37 104t92 35q51 0 122 -53.5t198 -53.5q-28 131 -67.5 203.5t-39.5 116.5q0 55 35.5 93t101.5 38
t101.5 -38t35.5 -93q0 -44 -39.5 -116.5t-67.5 -203.5q127 0 198 53.5t122 53.5q55 0 92 -35t37 -104q0 -67 -38 -102.5t-93 -35.5q-44 0 -115 53.5t-203 53.5q49 -226 118 -344q-69 -118 -118 -344z" />
    <glyph glyph-name="bullet" unicode="&#x2022;" 
d="M220 718q0 129 93.5 231t241.5 102q147 0 240 -103t93 -230t-94 -231t-241 -104q-148 0 -240.5 103.5t-92.5 231.5z" />
    <glyph glyph-name="ellipsis" unicode="&#x2026;" horiz-adv-x="2048" 
d="M274 177l95 89q18 15 34 15q14 0 34 -17l93 -91q13 -17 13 -31q0 -15 -16 -32l-91 -94q-24 -21 -33 -21q-19 0 -34 15l-101 107q-11 14 -11 27q0 16 17 33zM956 177l95 89q18 15 34 15q14 0 34 -17l93 -91q13 -17 13 -31q0 -15 -16 -32l-91 -94q-24 -21 -33 -21
q-19 0 -34 15l-101 107q-11 14 -11 27q0 16 17 33zM1640 177l95 89q18 15 34 15q14 0 34 -17l93 -91q13 -17 13 -31q0 -15 -16 -32l-91 -94q-24 -21 -33 -21q-19 0 -34 15l-101 107q-11 14 -11 27q0 16 17 33z" />
    <glyph glyph-name="guilsinglleft" unicode="&#x2039;" horiz-adv-x="676" 
d="M174 479l353 313h48v-47l-205 -266l205 -266v-47h-48z" />
    <glyph glyph-name="guilsinglright" unicode="&#x203a;" horiz-adv-x="676" 
d="M149 166h-48v47l205 266l-205 266v47h48l353 -313z" />
    <glyph glyph-name="fraction" unicode="&#x2044;" horiz-adv-x="342" 
d="M-192 -20l640 1474h84l-638 -1474h-86z" />
    <glyph glyph-name="fraction" unicode="&#x2215;" horiz-adv-x="342" 
d="M-192 -20l640 1474h84l-638 -1474h-86z" />
    <glyph glyph-name="franc" unicode="&#x20a3;" 
d="M187 454v689q0 222 -109 222h-48v69h943l111 -248h-112q-59 179 -133 179h-254q-108 0 -108 -222v-367h357q56 0 56 52v68h98v-358h-98v71q0 50 -56 50h-357v-205h186v-120h-186v-43q0 -222 108 -222h91v-69h-646v69h48q109 0 109 222v43h-157v120h157z" />
    <glyph glyph-name="lira" unicode="&#x20a4;" 
d="M644 1368h-4q-110 0 -173 -93q-57 -83 -57 -228q0 -21 1 -42q0 -75 26 -173h373v-80h-348q14 -43 33 -90h349v-80h-317q16 -54 16 -110q0 -170 -146 -362h393q94 0 154 133h92l-111 -253h-801l1 54q177 226 177 422q0 59 -16 116h-180v80h149l-1 1h1q-20 47 -35 89h-148
v80h120q-29 95 -29 154q0 220 131.5 349t342.5 129h7q99 0 205 -16q132 -17 132 -41v-193h-69q-3 51 -81 103q-78 51 -187 51z" />
    <glyph glyph-name="peseta" unicode="&#x20a7;" horiz-adv-x="2216" 
d="M510 1365v-647q0 -104 62 -155q50 -42 90 -42h5q27 4 73 60.5t72 169.5q21 91 21 187q0 23 -1 47q-7 122 -45.5 223.5t-82.5 129t-77 27.5h-117zM1557 -5q-44 -9 -98 -9q-157 0 -218.5 64t-61.5 172v678h-102q-8 -89 -42 -175q-45 -110 -141 -183.5t-215 -73.5
q-124 0 -169 68v-245q0 -222 89 -222h108v-69h-619v69h90q71 0 71 222v852q0 222 -71 222h-90v69h597q112 0 207 -72t141 -183q44 -108 46 -220h31q168 0 208 349h107v-349h276q55 17 125 18h2q82 0 171.5 -16.5t89.5 -35.5v-162h-67q-25 80 -70.5 113.5t-131.5 33.5
q-42 0 -77.5 -28t-35.5 -97q0 -114 222 -218q133 -59 179.5 -121.5t46.5 -143.5q0 -128 -101.5 -221t-256.5 -93q-52 0 -119 15q-37 -3 -52 -54l-52 1zM1425 898v-676q0 -90 32 -120q23 -23 71 -28l-74 198h89q82 -216 248 -216q69 0 119 44t50 135q0 108 -247 225
q-111 57 -155 116.5t-44 133.5q0 110 80 188h-169z" />
    <glyph glyph-name="Euro" unicode="&#x20ac;" 
d="M90 853q19 109 68 217q80 176 238 280t333 104q94 0 142.5 -21t57.5 -21q21 0 21 44h84l89 -298h-89q-56 133 -152 178.5t-197 45.5q-150 -9 -257 -202q-79 -142 -100 -327h571l-17 -80h-561q-1 -30 -1 -60h546l-17 -80h-526q18 -208 131 -383q133 -209 290 -209h2
q130 2 221.5 72t93.5 185h81v-146q0 -56 -94.5 -117t-301.5 -64q-196 0 -353.5 105.5t-235.5 279.5q-62 136 -75 277h-126l17 80h105q0 30 2 60h-90l17 80h83z" />
    <glyph glyph-name="numero" unicode="&#x2116;" horiz-adv-x="2271" 
 />
    <glyph glyph-name="trademark" unicode="&#x2122;" horiz-adv-x="1497" 
 />
    <glyph glyph-name="partialdiff" unicode="&#x2202;" 
d="M336 458q14 -124 62.5 -231.5t107.5 -154.5q51 -41 86 -41h6q39 3 89 59t74 171q16 75 16 154q0 43 -5 86q-14 124 -63 233t-108 155q-53 40 -90 40h-4q-34 -2 -84 -57.5t-76 -171.5q-16 -86 -16 -161q0 -43 5 -81zM1036 480q0 -124 -56 -241t-172.5 -190t-253.5 -73
t-253.5 73t-172.5 190t-56 241t57.5 241.5t174.5 190t250 72.5q157 0 200 -58q-72 185 -212 316.5t-334 146.5v70q397 0 612.5 -290t215.5 -689z" />
    <glyph glyph-name="Delta" unicode="&#x2206;" horiz-adv-x="1235" 
d="M599 1470l577 -1470h-1170zM153 102h728l-359 915z" />
    <glyph glyph-name="product" unicode="&#x220f;" horiz-adv-x="1673" 
d="M644 1365q-98 0 -98 -223v-1268q0 -223 99 -223h100v-71h-648v71h100q99 0 99 223v1268q0 223 -99 223h-100v69h1507v-69h-101q-98 0 -98 -223v-1268q0 -223 99 -223h100v-70h-648v70h100q99 0 99 223v1268q0 223 -99 223h-412z" />
    <glyph glyph-name="summation" unicode="&#x2211;" horiz-adv-x="1285" 
d="M1061 639l-767 -990h686q94 0 153 131h93l-111 -200h-1003v69q75 0 116 53l613 790l-613 818q-41 54 -116 54v70h1003l111 -201h-93q-59 131 -153 131h-466z" />
    <glyph glyph-name="minus" unicode="&#x2212;" 
d="M80 637v160h948v-160h-948z" />
    <glyph glyph-name="radical" unicode="&#x221a;" 
d="M347 -26l-185 431l142 48l77 -171l648 1377h166v-80h-93z" />
    <glyph glyph-name="infinity" unicode="&#x221e;" 
d="M469 758q-11 66 -75 95q-49 22 -93 22q-13 0 -26 -2q-56 -11 -103.5 -45t-66.5 -74q-18 -36 -18 -63v-6q1 -30 24.5 -64t75.5 -51q34 -12 70 -12q19 0 38 3q55 12 100 43.5t74 153.5zM515 683q8 -60 96 -116q72 -46 135 -46q13 0 26 2q71 13 131.5 53t87.5 91
q25 47 25 84v5q-2 40 -34.5 82.5t-97.5 63.5q-43 13 -88 13q-24 0 -48 -4q-77 -10 -141 -61t-92 -167zM489 862q7 23 22 62q40 95 109 144.5t139 49.5q71 0 139 -48.5t110 -145t42 -207.5q0 -110 -42 -207t-110 -145.5t-139 -48.5q-70 0 -139 49t-109 145q-15 39 -22 63
q-2 -11 -12 -33q-32 -81 -85 -122t-108 -41q-53 0 -107.5 41.5t-86.5 124t-32 174.5q0 91 32 174t86.5 124.5t107.5 41.5q55 0 108 -41t85 -120q11 -25 12 -34z" />
    <glyph glyph-name="integral" unicode="&#x222b;" horiz-adv-x="678" 
d="M45 -286q-97 0 -97 35v165h71q1 -55 25 -70.5t75 -15.5q67 0 88.5 157t29.5 312l70 733l8 62q26 234 138 432t269 198q98 0 98 -35v-165h-72q-1 55 -25.5 70.5t-74.5 15.5q-56 0 -89.5 -150.5t-37.5 -361.5l-73 -766q-20 -226 -134 -421t-269 -195z" />
    <glyph glyph-name="approxequal" unicode="&#x2248;" 
d="M998 1103v-233q-63 -73 -125 -99.5t-123 -26.5q-63 0 -200 48.5t-193 48.5q-47 0 -100.5 -26.5t-146.5 -133.5v233q64 73 126 100.5t121 27.5q67 0 204 -49.5t189 -49.5q48 0 101.5 26.5t146.5 133.5zM998 755v-233q-63 -73 -125 -99.5t-123 -26.5q-63 0 -200 48.5
t-193 48.5q-47 0 -100.5 -26.5t-146.5 -133.5v233q64 73 126 100.5t121 27.5q67 0 204 -49.5t189 -49.5q48 0 101.5 26.5t146.5 133.5z" />
    <glyph glyph-name="lessequal" unicode="&#x2264;" 
d="M1028 1066l-637 -350l637 -347v-206l-948 521v65l948 524v-207zM80 1v160h948v-160h-948z" />
    <glyph glyph-name="greaterequal" unicode="&#x2265;" 
d="M80 1272l948 -524v-65l-948 -521v206l637 347l-637 350v207zM80 1v160h948v-160h-948z" />
    <glyph glyph-name="uniF001" unicode="&#xf001;" horiz-adv-x="1073" 
 />
    <glyph glyph-name="uniF001" unicode="&#xfb01;" horiz-adv-x="1073" 
 />
    <glyph glyph-name="uniF002" unicode="&#xf002;" horiz-adv-x="1081" 
 />
    <glyph glyph-name="uniF002" unicode="&#xfb02;" horiz-adv-x="1081" 
 />
    </font>
</defs>
</svg>
